<svg xmlns="http://www.w3.org/2000/svg" xmlns:xlink="http://www.w3.org/1999/xlink" width="512" zoomAndPan="magnify" viewBox="0 0 384 393.74999" height="525" preserveAspectRatio="xMidYMid meet" version="1.0"><defs><clipPath id="7127d5d991"><path d="M 0.121094 344 L 192 344 L 192 350.550781 L 0.121094 350.550781 Z M 0.121094 344 " clip-rule="nonzero"/></clipPath></defs><g clip-path="url(#7127d5d991)"><path stroke-linecap="butt" transform="matrix(0.749502, 0, 0, 0.749732, -7.667465, 381.192302)" fill="none" stroke-linejoin="miter" d="M 12.606656 -1.449629 L 12.606656 -0.00119471 L 0.546566 -0.00119471 L 0.546566 -1.449629 L 4.705577 -2.189477 L 17.203458 -36.972746 L 22.399617 -36.972746 L 35.387406 -2.189477 L 40.036326 -1.449629 L 40.036326 -0.00119471 L 24.53124 -0.00119471 L 24.53124 -1.449629 L 29.456385 -2.189477 L 25.818553 -12.771385 L 11.376673 -12.771385 L 7.686723 -2.189477 Z M 18.48556 -33.039048 L 12.194925 -15.230598 L 24.969031 -15.230598 Z M 63.906341 -25.817716 C 63.906341 -28.823999 63.202749 -30.97581 61.800777 -32.273149 C 60.398804 -33.565278 58.037862 -34.211342 54.717949 -34.211342 L 52.039087 -34.211342 L 52.039087 -16.845759 L 54.879515 -16.845759 C 57.964897 -16.845759 60.237239 -17.549135 61.706964 -18.950678 C 63.171479 -20.357431 63.906341 -22.644707 63.906341 -25.817716 Z M 52.039087 -14.386546 L 52.039087 -2.189477 L 57.860661 -1.449629 L 57.860661 -0.00119471 L 42.412904 -0.00119471 L 42.412904 -1.449629 L 46.75954 -2.189477 L 46.75954 -34.513533 L 42.053291 -35.22733 L 42.053291 -36.675765 L 55.895815 -36.675765 C 64.865311 -36.675765 69.347454 -33.075519 69.347454 -25.869818 C 69.347454 -22.118477 68.216495 -19.263289 65.944153 -17.309466 C 63.671811 -15.360853 60.41444 -14.386546 56.166828 -14.386546 Z M 83.565227 -2.189477 L 88.266265 -1.449629 L 88.266265 -0.00119471 L 73.610701 -0.00119471 L 73.610701 -1.449629 L 78.311739 -2.189477 L 78.311739 -34.513533 L 73.610701 -35.22733 L 73.610701 -36.675765 L 88.266265 -36.675765 L 88.266265 -35.22733 L 83.565227 -34.513533 Z M 101.832564 -16.465414 L 101.832564 -2.189477 L 107.930362 -1.449629 L 107.930362 -0.00119471 L 92.201169 -0.00119471 L 92.201169 -1.449629 L 96.553017 -2.189477 L 96.553017 -34.513533 L 91.846767 -35.22733 L 91.846767 -36.675765 L 119.359826 -36.675765 L 119.359826 -27.896584 L 117.556545 -27.896584 L 116.680964 -33.830998 C 114.637941 -34.086297 111.682854 -34.211342 107.820915 -34.211342 L 101.832564 -34.211342 L 101.832564 -18.924627 L 112.6314 -18.924627 L 113.480923 -23.301191 L 115.148697 -23.301191 L 115.148697 -12.031537 L 113.480923 -12.031537 L 112.6314 -16.465414 Z M 122.992446 -1.449629 L 127.698696 -2.189477 L 127.698696 -34.513533 L 122.992446 -35.22733 L 122.992446 -36.675765 L 150.505505 -36.675765 L 150.505505 -27.896584 L 148.702224 -27.896584 L 147.826643 -33.830998 C 145.78362 -34.086297 142.828533 -34.211342 138.966594 -34.211342 L 132.973031 -34.211342 L 132.973031 -19.883303 L 142.875439 -19.883303 L 143.724961 -24.259867 L 145.470912 -24.259867 L 145.470912 -12.990213 L 143.724961 -12.990213 L 142.875439 -17.41888 L 132.973031 -17.41888 L 132.973031 -2.460407 L 140.196577 -2.460407 C 144.897615 -2.460407 147.977785 -2.606293 149.437087 -2.898064 L 150.995414 -9.681739 L 152.803906 -9.681739 L 152.282727 -0.00119471 L 122.992446 -0.00119471 Z M 187.175685 -34.513533 L 182.25054 -35.22733 L 182.25054 -36.675765 L 194.748421 -36.675765 L 194.748421 -35.22733 L 190.047383 -34.513533 L 190.047383 -0.00119471 L 187.39458 -0.00119471 L 164.775396 -32.981736 L 164.775396 -2.189477 L 169.695329 -1.449629 L 169.695329 -0.00119471 L 157.197448 -0.00119471 L 157.197448 -1.449629 L 161.903698 -2.189477 L 161.903698 -34.513533 L 157.197448 -35.22733 L 157.197448 -36.675765 L 168.30378 -36.675765 L 187.175685 -9.515013 Z M 208.007224 -2.189477 L 212.708262 -1.449629 L 212.708262 -0.00119471 L 198.052699 -0.00119471 L 198.052699 -1.449629 L 202.753736 -2.189477 L 202.753736 -34.513533 L 198.052699 -35.22733 L 198.052699 -36.675765 L 212.708262 -36.675765 L 212.708262 -35.22733 L 208.007224 -34.513533 Z M 223.345533 -2.189477 L 227.885005 -1.449629 L 227.885005 -0.00119471 L 215.908304 -0.00119471 L 215.908304 -1.449629 L 219.952655 -2.189477 L 232.424478 -18.763111 L 221.787207 -34.513533 L 217.654254 -35.22733 L 217.654254 -36.675765 L 232.77888 -36.675765 L 232.77888 -35.22733 L 228.12996 -34.513533 L 235.733967 -23.191777 L 244.239614 -34.513533 L 239.700142 -35.22733 L 239.700142 -36.675765 L 251.708114 -36.675765 L 251.708114 -35.22733 L 247.658551 -34.513533 L 237.349623 -20.784667 L 249.956952 -2.189477 L 254.110751 -1.449629 L 254.110751 -0.00119471 L 238.986126 -0.00119471 L 238.986126 -1.449629 L 243.640258 -2.189477 L 234.008863 -16.408102 Z M 223.345533 -2.189477 " stroke="#e64218" stroke-width="0.825943" stroke-opacity="1" stroke-miterlimit="10"/></g><path fill="#1a1a1c" d="M 190.46875 140.621094 L 190.46875 141.671875 L 189.851562 141.300781 L 189.851562 140.992188 Z M 190.46875 140.621094 " fill-opacity="1" fill-rule="nonzero"/><path fill="#111113" d="M 313.722656 114.238281 C 287.101562 74.300781 241.726562 47.980469 190.097656 47.980469 C 138.46875 47.980469 93.09375 74.300781 66.472656 114.238281 C 50.8125 137.769531 41.710938 166.007812 41.710938 196.351562 C 41.710938 278.335938 108.136719 344.78125 190.097656 344.78125 C 272.058594 344.78125 338.484375 278.335938 338.484375 196.351562 C 338.542969 166.007812 329.382812 137.769531 313.722656 114.238281 Z M 313.722656 114.238281 " fill-opacity="1" fill-rule="nonzero"/><path fill="#fffffe" d="M 314.464844 170.03125 C 302.332031 227.558594 251.320312 270.71875 190.160156 270.71875 C 129.058594 270.71875 77.988281 227.558594 65.855469 170.03125 C 77.988281 112.507812 128.996094 69.34375 190.160156 69.34375 C 251.257812 69.34375 302.332031 112.507812 314.464844 170.03125 Z M 314.464844 170.03125 " fill-opacity="1" fill-rule="nonzero"/><path fill="#fffffe" d="M 314.464844 170.03125 C 314.09375 171.890625 313.660156 173.6875 313.164062 175.480469 C 299.050781 230.285156 249.339844 270.71875 190.160156 270.71875 C 130.976562 270.71875 81.269531 230.285156 67.15625 175.480469 C 66.660156 173.6875 66.289062 171.828125 65.855469 170.03125 C 67.03125 164.335938 68.640625 158.761719 70.558594 153.4375 C 88.203125 104.394531 135.0625 69.34375 190.160156 69.34375 C 245.253906 69.34375 292.117188 104.394531 309.695312 153.4375 C 311.679688 158.761719 313.226562 164.335938 314.464844 170.03125 Z M 314.464844 170.03125 " fill-opacity="1" fill-rule="nonzero"/><path fill="#e64218" d="M 317.1875 196.351562 C 317.1875 266.511719 260.296875 323.417969 190.160156 323.417969 C 120.019531 323.417969 63.132812 266.511719 63.132812 196.351562 C 63.132812 187.308594 64.058594 178.515625 65.855469 169.972656 C 77.988281 227.496094 128.996094 270.660156 190.160156 270.660156 C 251.257812 270.660156 302.332031 227.496094 314.464844 169.972656 C 316.257812 178.515625 317.1875 187.308594 317.1875 196.351562 Z M 317.1875 196.351562 " fill-opacity="1" fill-rule="nonzero"/><path fill="#cc2c0d" d="M 314.464844 170.03125 C 314.09375 171.890625 313.660156 173.6875 313.164062 175.480469 C 299.050781 230.285156 249.339844 270.71875 190.160156 270.71875 C 130.976562 270.71875 81.269531 230.285156 67.15625 175.480469 C 66.660156 173.6875 66.289062 171.828125 65.855469 170.03125 C 67.03125 164.335938 68.640625 158.761719 70.558594 153.4375 C 88.203125 202.417969 135.0625 237.46875 190.160156 237.46875 C 245.253906 237.46875 292.117188 202.417969 309.695312 153.375 C 311.679688 158.761719 313.226562 164.335938 314.464844 170.03125 Z M 314.464844 170.03125 " fill-opacity="1" fill-rule="nonzero"/><path fill="#111113" d="M 201.117188 152.199219 C 201.300781 152.382812 201.300781 152.632812 201.300781 152.941406 C 201.300781 154.304688 200.929688 155.605469 200.125 156.65625 C 196.722656 161.179688 190.160156 157.710938 186.382812 161.550781 C 187.746094 161.054688 188.921875 160.558594 190.40625 160.621094 C 190.964844 160.621094 191.644531 160.804688 192.203125 160.683594 C 192.820312 160.558594 193.441406 160.1875 193.996094 160 C 196.101562 159.382812 198.019531 159.195312 199.878906 157.957031 C 199.320312 159.195312 198.207031 160.433594 197.527344 161.671875 L 200.1875 160.992188 C 203.65625 160.1875 206.75 161.179688 209.660156 163.035156 C 209.226562 163.285156 208.542969 163.40625 208.050781 163.46875 L 204.769531 164.210938 C 203.53125 164.523438 202.292969 164.957031 201.117188 165.449219 C 202.726562 165.761719 204.027344 166.503906 205.449219 167.246094 C 206.253906 167.679688 207.121094 168.050781 207.863281 168.546875 C 206.996094 168.359375 206.128906 168.113281 205.265625 167.925781 C 203.714844 167.617188 202.230469 167.617188 200.683594 167.867188 C 202.476562 167.988281 204.148438 168.175781 205.757812 169.105469 C 208.421875 170.652344 209.78125 173.066406 210.464844 175.976562 C 209.90625 175.171875 209.410156 174.429688 208.667969 173.75 C 207.800781 172.882812 206.75 172.449219 205.636719 171.953125 C 203.59375 171.085938 201.671875 170.527344 199.445312 170.589844 L 199.382812 170.714844 C 199.570312 170.777344 199.507812 170.777344 199.691406 170.839844 C 200.25 170.960938 200.746094 171.148438 201.238281 171.394531 C 204.273438 172.820312 205.511719 174.925781 206.625 177.960938 C 205.386719 176.597656 203.65625 175.667969 201.859375 175.234375 C 203.902344 176.660156 205.511719 178.207031 206.070312 180.746094 C 206.378906 182.355469 206.503906 184.460938 205.882812 186.007812 C 205.636719 186.628906 205.265625 187.125 204.890625 187.679688 C 204.890625 186.875 205.015625 186.070312 204.953125 185.265625 C 204.890625 183.285156 204.519531 181.304688 203.46875 179.570312 C 203.035156 178.765625 202.355469 178.082031 201.796875 177.402344 L 202.355469 178.640625 C 202.910156 180.125 203.035156 181.738281 203.097656 183.347656 C 203.160156 184.894531 203.222656 186.566406 202.726562 187.992188 C 202.355469 189.167969 201.613281 190.15625 201.054688 191.273438 C 201.054688 189.726562 200.992188 188.113281 200.683594 186.628906 C 200.3125 184.707031 199.570312 182.976562 198.640625 181.242188 C 198.144531 180.25 197.648438 179.257812 196.90625 178.394531 C 197.402344 179.691406 197.898438 180.929688 198.207031 182.355469 C 198.765625 185.203125 199.011719 188.796875 197.277344 191.335938 C 197.15625 191.457031 197.214844 191.398438 197.214844 191.582031 C 197.339844 191.582031 197.464844 191.582031 197.585938 191.707031 C 197.960938 191.953125 198.332031 192.449219 198.640625 192.757812 C 200.0625 194.492188 200.808594 196.597656 201.117188 198.765625 C 202.105469 205.453125 197.960938 211.832031 194.121094 216.847656 C 195.234375 217.714844 196.660156 218.269531 197.960938 218.765625 C 199.382812 219.261719 200.929688 219.695312 202.292969 220.4375 C 204.460938 221.554688 206.128906 223.535156 207.246094 225.703125 C 207.121094 225.578125 206.996094 225.515625 206.875 225.332031 C 205.636719 223.90625 203.777344 222.421875 201.984375 221.863281 C 200.808594 221.492188 199.628906 221.367188 198.453125 221.242188 C 198.640625 221.492188 199.628906 221.800781 200.003906 221.988281 C 200.992188 222.605469 201.921875 223.472656 202.789062 224.277344 C 204.707031 226.074219 206.503906 227.929688 207.738281 230.285156 C 208.976562 232.574219 209.660156 235.671875 209.78125 238.273438 C 208.792969 234.992188 207.246094 232.082031 204.769531 229.601562 C 203.28125 228.117188 201.921875 226.941406 200.808594 225.144531 C 200.867188 225.640625 201.238281 226.199219 201.363281 226.691406 C 201.796875 227.871094 201.984375 229.046875 202.105469 230.222656 C 202.417969 234.929688 201.363281 240.253906 198.886719 244.339844 C 198.269531 245.394531 197.464844 246.324219 196.660156 247.191406 L 196.722656 247.25 C 197.835938 246.261719 198.949219 245.332031 199.816406 244.09375 C 202.539062 240.441406 203.65625 235.859375 203.035156 231.335938 C 204.953125 233.566406 206.6875 235.734375 207.800781 238.519531 C 208.917969 241.308594 208.792969 244.28125 207.988281 247.128906 C 206.316406 253.382812 202.292969 258.523438 198.019531 263.226562 C 195.667969 265.828125 193.128906 268.492188 191.769531 271.773438 C 190.097656 275.738281 189.664062 280.566406 191.335938 284.53125 C 190.40625 283.476562 189.601562 282.425781 188.984375 281.1875 C 187.808594 278.957031 187.621094 276.726562 187.746094 274.3125 C 187.929688 270.90625 188.671875 267.871094 189.726562 264.652344 C 187.433594 267.933594 185.640625 272.144531 185.515625 276.171875 C 185.453125 277.46875 185.640625 278.707031 185.703125 280.007812 C 184.648438 276.976562 184.648438 273.691406 185.144531 270.472656 C 185.394531 268.925781 185.765625 267.375 186.257812 265.890625 C 187.808594 261.867188 190.46875 258.644531 193.6875 255.921875 C 196.289062 253.691406 198.824219 251.648438 200.867188 248.921875 C 201.734375 247.808594 202.601562 246.632812 203.222656 245.332031 C 201.488281 247.375 199.507812 249.171875 197.464844 250.84375 C 195.113281 252.761719 192.636719 254.496094 190.59375 256.789062 C 189.046875 258.460938 187.808594 260.378906 186.691406 262.359375 C 185.332031 264.839844 184.277344 267.5625 183.78125 270.347656 C 182.855469 275.613281 184.03125 281.558594 186.816406 286.140625 C 187.683594 287.5625 188.859375 288.800781 189.789062 290.164062 C 188.859375 289.609375 188.054688 288.679688 187.1875 287.996094 C 185.824219 286.882812 184.277344 285.832031 183.164062 284.46875 C 182.546875 283.726562 182.113281 282.859375 181.800781 281.992188 C 181.246094 280.257812 181.183594 278.398438 181.121094 276.601562 C 181.058594 274.929688 180.996094 273.199219 181.183594 271.527344 C 181.679688 266.199219 183.472656 260.75 185.949219 256.042969 L 185.824219 255.984375 C 184.339844 258.210938 183.101562 260.503906 181.988281 262.980469 C 180.996094 265.519531 180.128906 268.121094 179.699219 270.84375 C 179.386719 272.640625 179.324219 274.4375 179.265625 276.230469 C 179.203125 278.335938 179.265625 280.566406 179.699219 282.671875 C 180.6875 287.191406 184.09375 290.660156 187.867188 293.074219 C 191.519531 295.367188 196.722656 296.730469 200.992188 296.605469 C 202.476562 296.542969 203.964844 296.234375 205.386719 295.921875 C 205.140625 296.171875 204.582031 296.355469 204.273438 296.480469 C 202.292969 297.347656 200.1875 297.96875 198.082031 298.339844 C 192.386719 299.390625 185.949219 298.835938 181.121094 295.492188 C 176.046875 291.960938 172.332031 286.945312 170.90625 280.875 C 170.535156 279.328125 170.472656 277.78125 170.164062 276.230469 L 170.101562 277.71875 C 170.164062 283.726562 172.269531 289.050781 176.167969 293.632812 C 176.851562 294.4375 177.59375 295.117188 178.335938 295.800781 L 174.867188 294.003906 C 170.472656 291.28125 167.128906 287.253906 165.953125 282.175781 C 164.839844 277.46875 165.273438 272.515625 166.699219 267.933594 C 167.253906 266.136719 168.058594 264.40625 168.863281 262.671875 C 169.976562 260.195312 171.214844 257.71875 172.640625 255.363281 L 168.925781 258.644531 C 164.53125 262.792969 160.507812 268.121094 159.082031 274.066406 C 157.78125 279.390625 158.402344 285.273438 160.628906 290.226562 C 161.1875 291.464844 161.929688 292.578125 162.613281 293.757812 C 160.074219 291.773438 158.03125 289.175781 156.792969 286.140625 C 154.8125 281.308594 154.75 275.984375 155.863281 270.90625 C 156.546875 267.808594 157.660156 265.085938 159.207031 262.300781 C 161.808594 257.59375 165.644531 253.628906 169.976562 250.472656 C 172.703125 248.492188 175.550781 246.695312 178.460938 244.898438 C 181.183594 243.226562 184.09375 241.617188 186.570312 239.511719 C 187.992188 238.273438 189.230469 236.972656 190.34375 235.488281 C 191.210938 234.371094 192.015625 233.195312 192.511719 231.894531 C 193.933594 228.425781 193.441406 225.144531 191.707031 221.925781 C 190.53125 219.695312 189.042969 217.589844 188.179688 215.175781 C 187.496094 213.195312 187.003906 211.089844 186.570312 209.046875 C 186.320312 208.054688 186.257812 207 185.886719 206.074219 C 185.886719 208.425781 185.949219 210.902344 186.570312 213.195312 C 188.054688 218.582031 192.015625 223.472656 191.335938 229.355469 C 190.964844 232.761719 188.117188 235.796875 185.515625 237.777344 C 183.164062 239.636719 180.441406 240.875 177.46875 241.492188 C 176.167969 241.742188 174.808594 241.925781 173.507812 241.742188 L 173.320312 241.742188 C 170.660156 241.371094 168.617188 239.757812 166.511719 238.148438 C 167.316406 238.457031 168.121094 238.890625 168.925781 239.203125 C 169.792969 239.511719 170.660156 239.636719 171.585938 239.757812 C 176.539062 240.191406 180.933594 238.644531 184.648438 235.425781 C 187.125 233.257812 189.417969 230.222656 189.601562 226.816406 C 189.851562 222.855469 188.488281 219.570312 185.578125 216.910156 C 184.15625 215.609375 182.667969 214.433594 181.367188 213.007812 C 178.273438 209.480469 176.910156 204.835938 178.210938 200.191406 C 178.769531 198.269531 179.636719 196.472656 180.378906 194.617188 C 181.308594 192.386719 181.988281 190.035156 183.289062 187.992188 C 184.527344 185.949219 186.878906 183.71875 186.941406 181.242188 C 187.003906 179.941406 186.382812 178.703125 185.515625 177.773438 C 183.78125 175.914062 180.128906 174.675781 177.65625 174.554688 C 176.789062 174.554688 175.796875 174.554688 174.992188 174.863281 C 173.445312 175.484375 172.269531 177.277344 171.09375 178.394531 C 170.96875 178.332031 170.96875 178.332031 170.90625 178.207031 C 170.164062 177.339844 169.730469 176.289062 169.855469 175.171875 C 170.101562 172.511719 172.082031 171.644531 173.816406 170.09375 C 173.941406 169.972656 174.3125 169.660156 174.433594 169.476562 C 174.558594 169.289062 174.375 168.546875 174.375 168.238281 C 174.3125 167.617188 174.3125 166.9375 174.375 166.253906 C 174.683594 161.984375 177.035156 158.949219 180.6875 156.84375 C 181.925781 156.101562 183.289062 155.542969 184.527344 154.800781 C 185.515625 154.179688 186.320312 153.4375 187.1875 152.695312 C 186.753906 153.746094 186.320312 154.863281 185.640625 155.789062 L 185.515625 155.976562 C 184.402344 157.460938 182.976562 158.640625 181.617188 159.816406 C 183.101562 159.195312 184.585938 158.144531 186.011719 157.460938 C 188.238281 156.347656 190.59375 155.542969 192.699219 154.179688 C 192.203125 155.480469 191.769531 156.535156 190.777344 157.585938 C 192.511719 157.460938 194.246094 157.152344 195.917969 156.597656 C 197.339844 156.164062 199.011719 155.480469 200.003906 154.304688 C 200.496094 153.375 200.808594 152.757812 201.117188 152.199219 Z M 201.117188 152.199219 " fill-opacity="1" fill-rule="nonzero"/><path fill="#111113" d="M 118.472656 139.007812 C 117.730469 137.832031 117.296875 136.285156 116.800781 134.984375 C 114.511719 128.855469 114.386719 121.980469 115.75 115.601562 C 116.183594 113.558594 116.742188 111.515625 117.605469 109.59375 C 119.277344 106.003906 121.878906 102.535156 125.65625 101.175781 L 124.355469 103.589844 C 122.992188 106.625 122.3125 110.214844 122.496094 113.558594 C 122.558594 114.984375 122.867188 116.34375 123.179688 117.769531 C 123.984375 121.546875 125.222656 125.078125 126.519531 128.730469 L 129.367188 137.027344 L 129.800781 137.089844 L 129.742188 136.964844 C 127.945312 133.066406 127.203125 128.171875 126.894531 123.898438 C 126.832031 122.910156 126.894531 121.917969 126.832031 120.867188 C 126.769531 120.0625 126.644531 119.195312 126.582031 118.390625 C 129.308594 121.917969 131.597656 125.386719 133.269531 129.535156 C 135.496094 135.109375 136.425781 141.238281 139.210938 146.625 C 140.449219 148.980469 142.121094 151.207031 143.917969 153.128906 C 147.753906 157.277344 152.582031 160.683594 157.535156 163.34375 L 160.628906 164.832031 C 161.25 165.140625 161.992188 165.386719 162.550781 165.820312 C 162.921875 166.132812 162.859375 166.8125 162.734375 167.308594 L 162.363281 169.785156 L 162.117188 173.066406 C 161.992188 174.058594 161.808594 175.046875 161.746094 176.101562 C 161.621094 178.886719 162.613281 181.488281 164.28125 183.65625 C 166.015625 185.949219 168.492188 187.621094 171.03125 188.980469 C 173.011719 190.097656 175.179688 191.023438 177.34375 191.644531 C 178.085938 191.828125 178.890625 191.890625 179.636719 192.078125 C 178.398438 195.484375 176.972656 198.828125 176.046875 202.355469 L 174.1875 210.777344 C 173.507812 214.183594 172.765625 218.023438 170.96875 220.933594 C 169.667969 223.039062 167.5625 224.773438 165.398438 225.824219 L 162.796875 226.941406 C 164.160156 222.855469 165.148438 218.582031 165.707031 214.308594 L 166.265625 208.550781 C 163.355469 214.679688 159.515625 221.800781 152.769531 224.152344 C 150.230469 225.082031 147.691406 225.019531 145.03125 224.898438 C 150.601562 221.183594 153.636719 215.546875 155.308594 209.230469 C 154.625 210.34375 153.699219 211.273438 152.894531 212.328125 C 149.363281 216.476562 145.214844 220.003906 139.769531 221.242188 C 137.167969 221.800781 134.320312 221.617188 131.722656 221.242188 C 134.074219 220.128906 135.683594 218.703125 137.476562 216.785156 C 139.769531 214.371094 141.625 211.707031 142.742188 208.550781 L 143.234375 206.9375 L 143.113281 207 C 142.863281 207.1875 142.617188 207.371094 142.367188 207.433594 C 141.316406 207.621094 140.140625 207.558594 139.027344 207.558594 C 134.691406 207.558594 130.234375 207.496094 126.027344 206.691406 C 116.988281 205.019531 108.816406 200.25 103.617188 192.636719 C 102.625 191.148438 101.882812 189.539062 101.140625 187.929688 C 101.945312 188.671875 102.75 189.414062 103.617188 190.097656 C 106.835938 192.449219 110.550781 194.121094 114.386719 195.050781 C 116.742188 195.605469 119.15625 195.917969 121.570312 196.226562 L 126.519531 196.96875 L 130.605469 197.710938 C 131.289062 197.835938 132.09375 198.144531 132.835938 198.144531 L 130.917969 197.09375 C 128.441406 195.667969 126.027344 194.367188 123.363281 193.378906 C 120.886719 192.449219 118.351562 191.828125 115.875 190.964844 C 110.054688 188.980469 104.792969 185.699219 100.769531 181.054688 C 97.984375 177.898438 96.125 174.429688 95.136719 170.34375 L 94.765625 168.671875 C 94.703125 168.484375 94.578125 168.175781 94.640625 168.050781 C 95.445312 169.105469 96.125 170.21875 97.054688 171.269531 C 99.160156 173.75 101.882812 176.101562 104.667969 177.710938 C 107.453125 179.382812 110.613281 180.558594 113.707031 181.488281 C 116.183594 182.230469 118.660156 182.851562 121.074219 183.84375 C 119.277344 182.292969 117.605469 180.746094 115.6875 179.320312 L 107.394531 173.808594 C 102.070312 169.972656 97.613281 164.894531 95.628906 158.515625 C 95.011719 156.59375 94.703125 154.613281 94.515625 152.632812 L 94.332031 150.28125 C 97.300781 156.410156 102.5625 161.179688 108.691406 164.089844 C 110.921875 165.140625 113.273438 166.007812 115.441406 167.183594 C 117.296875 168.175781 118.96875 169.476562 120.515625 170.839844 L 120.703125 170.589844 L 103.988281 154.800781 C 100.273438 150.527344 97.425781 145.015625 96.867188 139.378906 C 96.683594 137.648438 96.808594 135.976562 96.867188 134.242188 C 97.550781 135.417969 97.921875 136.78125 98.601562 137.957031 C 101.636719 143.15625 106.09375 146.8125 111.046875 149.90625 C 113.460938 151.394531 115.875 152.757812 117.917969 154.675781 L 118.101562 154.613281 C 116.429688 152.757812 115.007812 150.527344 113.460938 148.484375 C 111.601562 146.070312 109.558594 143.714844 107.949219 141.113281 C 105.78125 137.648438 104.546875 133.558594 104.359375 129.535156 C 104.113281 124.582031 104.484375 118.761719 108.011719 114.921875 C 107.824219 116.097656 107.578125 117.210938 107.578125 118.390625 C 107.453125 124.582031 111.167969 129.96875 114.882812 134.613281 C 116.058594 136.160156 117.421875 137.460938 118.410156 139.195312 Z M 118.472656 139.007812 " fill-opacity="1" fill-rule="nonzero"/><path fill="#111113" d="M 259.679688 171.023438 C 261.410156 169.539062 263.207031 168.050781 265.25 166.9375 C 267.664062 165.574219 270.324219 164.707031 272.800781 163.46875 C 276.824219 161.550781 280.476562 158.640625 283.324219 155.171875 C 284.378906 153.933594 285.304688 152.632812 286.050781 151.144531 L 285.988281 153.003906 C 285.738281 155.851562 284.6875 158.886719 283.449219 161.488281 C 280.847656 167 276.949219 171.269531 271.933594 174.675781 L 264.628906 179.382812 C 262.773438 180.621094 261.226562 182.109375 259.492188 183.53125 C 261.84375 182.601562 264.382812 182.046875 266.859375 181.363281 C 269.210938 180.683594 271.6875 179.816406 273.917969 178.703125 C 278.867188 176.164062 283.636719 172.015625 286.296875 167.121094 L 285.863281 169.476562 C 285.492188 171.210938 284.996094 172.945312 284.253906 174.554688 C 281.160156 181.242188 274.96875 186.691406 268.222656 189.414062 C 264.628906 190.839844 260.855469 191.644531 257.324219 193.128906 C 254.601562 194.308594 252.0625 195.980469 249.527344 197.527344 C 256.335938 196.101562 263.640625 196.039062 270.203125 193.625 C 273.484375 192.449219 276.765625 190.40625 279.363281 187.992188 C 278.683594 189.785156 277.691406 191.398438 276.578125 192.945312 C 273.792969 196.847656 270.324219 200.128906 266.179688 202.480469 C 259.863281 206.074219 252.125 207 244.945312 207.1875 C 243.085938 207.25 241.105469 207.371094 239.25 206.878906 L 241.910156 212.140625 C 243.210938 214.246094 245.007812 216.226562 246.925781 217.777344 C 248.101562 218.765625 249.402344 219.695312 250.886719 220.003906 L 251.011719 220.066406 C 248.597656 220.75 245.6875 220.933594 243.210938 220.625 C 235.84375 219.632812 229.839844 213.503906 225.507812 207.867188 C 226.375 210.160156 227.179688 212.511719 228.230469 214.679688 C 228.910156 216.042969 229.777344 217.34375 230.644531 218.582031 C 232.253906 220.871094 234.171875 223.101562 236.648438 224.464844 C 233.863281 224.773438 231.449219 224.898438 228.789062 223.78125 C 225.320312 222.296875 222.289062 219.199219 220.183594 216.042969 C 219.441406 214.925781 218.882812 213.75 218.265625 212.574219 C 217.644531 211.398438 216.964844 210.222656 216.46875 208.984375 C 216.34375 210.285156 216.59375 211.769531 216.777344 213.070312 C 217.460938 217.589844 218.820312 222.480469 221.113281 226.445312 L 216.839844 224.710938 C 213.003906 222.730469 210.589844 219.386719 209.164062 215.359375 C 208.605469 213.75 208.234375 212.078125 207.742188 210.46875 C 206.996094 207.804688 206.316406 205.082031 205.324219 202.480469 C 204.519531 200.3125 203.53125 198.269531 202.539062 196.226562 C 201.859375 194.742188 201.054688 193.378906 200.558594 191.828125 C 200.808594 191.644531 201.550781 191.707031 201.859375 191.644531 C 206.441406 190.964844 211.578125 187.742188 214.300781 184.027344 C 216.160156 181.488281 217.335938 178.703125 216.964844 175.542969 C 216.839844 174.617188 216.53125 173.75 216.40625 172.882812 C 216.222656 171.519531 216.40625 170.15625 216.160156 168.792969 C 215.910156 167.679688 215.355469 166.628906 215.167969 165.511719 C 215.230469 165.390625 215.292969 165.203125 215.417969 165.140625 C 216.035156 164.582031 217.398438 164.398438 218.203125 164.148438 C 219.191406 163.902344 220.121094 163.59375 221.050781 163.222656 C 223.339844 162.355469 225.507812 161.117188 227.613281 159.816406 C 231.015625 157.648438 234.296875 155.109375 236.960938 152.074219 C 239.125 149.597656 240.859375 146.996094 242.222656 144.023438 C 243.398438 141.425781 244.203125 138.636719 245.070312 135.914062 C 247.113281 129.78125 249.710938 123.40625 254.167969 118.699219 C 253.921875 120.617188 253.984375 122.539062 253.796875 124.457031 L 253.179688 128.605469 C 252.929688 130.09375 252.808594 131.578125 252.496094 133.066406 L 251.816406 135.976562 C 252.433594 134.984375 252.746094 133.5 253.179688 132.445312 L 256.210938 123.28125 C 256.953125 120.804688 257.636719 118.328125 258.007812 115.726562 C 258.6875 110.957031 257.945312 105.199219 255.035156 101.296875 C 257.265625 102.164062 259.121094 103.652344 260.667969 105.507812 C 264.691406 110.402344 265.992188 117.398438 265.992188 123.589844 C 265.992188 125.511719 265.929688 127.492188 265.621094 129.410156 C 265.125 132.445312 264.195312 135.230469 262.960938 138.019531 L 263.082031 138.140625 C 264.136719 136.65625 265.433594 135.355469 266.613281 133.929688 C 269.953125 129.78125 273.296875 124.457031 273.484375 119.007812 C 273.542969 117.894531 273.296875 116.71875 273.113281 115.664062 C 273.792969 116.53125 274.410156 117.398438 274.84375 118.390625 C 276.640625 122.351562 276.515625 127.617188 275.960938 131.824219 C 275.464844 135.851562 273.792969 139.753906 271.441406 143.035156 L 267.847656 147.554688 C 266.300781 149.597656 264.816406 151.703125 263.082031 153.625 L 259.679688 157.027344 C 259.058594 157.648438 258.378906 158.207031 257.820312 158.824219 L 258.070312 158.886719 L 262.277344 154.738281 L 261.84375 155.542969 L 261.289062 156.472656 C 261.101562 156.78125 260.917969 157.152344 260.730469 157.523438 L 260.171875 158.640625 C 260.113281 158.824219 260.113281 158.761719 259.988281 158.949219 C 259.925781 159.074219 259.863281 159.132812 259.863281 159.320312 C 259.679688 159.507812 259.679688 159.445312 259.679688 159.691406 L 259.800781 159.753906 L 259.863281 159.628906 C 261.101562 157.710938 261.78125 155.480469 263.453125 153.808594 C 265.25 152.011719 267.789062 151.085938 269.953125 149.847656 C 275.773438 146.503906 281.34375 140.992188 283.757812 134.613281 C 284.5625 141.609375 282.085938 148.296875 277.753906 153.808594 C 274.660156 157.773438 270.636719 160.804688 266.984375 164.148438 C 264.507812 166.378906 262.15625 168.980469 259.554688 171.023438 Z M 259.679688 171.023438 " fill-opacity="1" fill-rule="nonzero"/></svg>